<svg t="1597026345652" class="icon" viewBox="0 0 1024 1024" version="1.1" xmlns="http://www.w3.org/2000/svg" p-id="5733" width="128" height="128"><path d="M802.079806 447.99993H263.99989v-135.999979a247.999961 247.999961 0 0 1 495.999923 0 31.999995 31.999995 0 0 0 63.99999 0 311.999951 311.999951 0 0 0-623.999903 0v137.759979a149.919977 149.919977 0 0 0-127.99998 148.159977v276.159956A149.919977 149.919977 0 0 0 222.079897 1023.99984h579.999909A149.919977 149.919977 0 0 0 951.999783 874.079863V598.079907A149.919977 149.919977 0 0 0 802.079806 447.99993zM887.999793 874.079863A86.079987 86.079987 0 0 1 802.079806 959.99985H222.079897A86.079987 86.079987 0 0 1 135.99991 874.079863V598.079907A86.079987 86.079987 0 0 1 222.079897 511.99992h579.999909A86.079987 86.079987 0 0 1 887.999793 598.079907z" p-id="5734" fill="#2c2c2c"></path><path d="M511.999851 575.99991A87.999986 87.999986 0 0 0 487.999855 748.639883v123.359981a23.999996 23.999996 0 0 0 47.999993 0v-123.359981A87.999986 87.999986 0 0 0 511.999851 575.99991z m0 127.99998a39.999994 39.999994 0 1 1 39.999994-39.999994 39.999994 39.999994 0 0 1-39.999994 39.999994z" p-id="5735" fill="#2c2c2c"></path></svg>
